<svg width="487" height="487" xmlns="http://www.w3.org/2000/svg" xmlns:xlink="http://www.w3.org/1999/xlink" xml:space="preserve" overflow="hidden"><g><path d="M253.646 152.188 233.354 152.188C222.194 152.188 213.062 143.056 213.062 131.896L213.062 91.3125C213.062 80.1521 222.194 71.0208 233.354 71.0208L253.646 71.0208C264.806 71.0208 273.938 80.1521 273.938 91.3125L273.938 131.896C273.938 143.056 264.806 152.188 253.646 152.188Z"/><path d="M405.833 253.646 284.083 253.646 284.083 233.354 405.833 233.354 405.833 253.646ZM405.833 314.521 284.083 314.521 284.083 294.229 405.833 294.229 405.833 314.521ZM405.833 375.396 284.083 375.396 284.083 355.104 405.833 355.104 405.833 375.396ZM243.5 375.396 81.1667 375.396 81.1667 334.812C81.1667 328.725 84.2104 322.637 89.2833 318.579 100.444 310.462 114.648 303.36 128.852 299.302 140.012 296.258 151.173 294.229 162.333 294.229 174.508 294.229 185.669 296.258 195.815 299.302 210.019 303.36 224.223 309.448 235.383 318.579 240.456 322.637 243.5 328.725 243.5 334.812L243.5 375.396ZM162.333 202.917C184.654 202.917 202.917 221.179 202.917 243.5 202.917 265.821 184.654 284.083 162.333 284.083 140.012 284.083 121.75 265.821 121.75 243.5 121.75 221.179 140.012 202.917 162.333 202.917ZM426.125 131.896 294.229 131.896C294.229 154.217 275.967 172.479 253.646 172.479L233.354 172.479C211.033 172.479 192.771 154.217 192.771 131.896L60.875 131.896C49.7146 131.896 40.5833 141.027 40.5833 152.188L40.5833 395.688C40.5833 406.848 49.7146 415.979 60.875 415.979L426.125 415.979C437.285 415.979 446.417 406.848 446.417 395.688L446.417 152.188C446.417 141.027 437.285 131.896 426.125 131.896Z"/></g></svg>