<svg width="432" height="432" xmlns="http://www.w3.org/2000/svg" xmlns:xlink="http://www.w3.org/1999/xlink" xml:space="preserve" overflow="hidden"><g><path d="M130.05 166.5 355.5 166.5 355.5 144C355.5 134.1 347.4 126 337.5 126L202.5 126 153 93.15C149.85 91.35 146.7 90 143.1 90L58.5 90C48.6 90 40.5 98.1 40.5 108L40.5 328.5C40.5 329.4 98.55 187.65 98.55 187.65 103.95 175.05 116.1 166.5 130.05 166.5Z"/><path d="M391.5 202.5C391.5 193.05 384.75 185.4 375.3 184.5L130.05 184.5C123.3 184.5 117.45 188.55 114.75 194.4L54 342 328.5 342 389.7 210.6C391.05 207.9 391.5 205.2 391.5 202.5L391.5 202.5Z"/></g></svg>