<svg width="325" height="324" xmlns="http://www.w3.org/2000/svg" xmlns:xlink="http://www.w3.org/1999/xlink" xml:space="preserve" overflow="hidden"><g transform="translate(-177 -169)"><path d="M208.913 210.6C235.237 185.288 236.587 143.438 211.613 116.438 238.275 130.275 260.212 151.538 273.038 165.712 259.538 178.875 236.587 198.45 208.913 210.6ZM76.275 141.075C87.4125 131.625 99.225 123.525 112.05 116.775 87.4125 143.775 88.7625 185.288 115.087 210.6 87.4125 198.45 64.125 178.875 50.9625 165.712 58.725 156.938 67.1625 148.837 76.275 141.075L76.275 141.075ZM162 216C132.3 216 108 191.7 108 162 108 132.3 132.3 108 162 108 191.7 108 216 132.3 216 162 216 191.7 191.7 216 162 216ZM293.288 156.262C273.712 133.312 222.413 81 162 81 101.588 81 50.2875 133.312 30.7125 156.262 25.65 162.337 25.9875 170.775 31.3875 176.512 51.3 197.438 102.262 243 162 243 221.737 243 272.7 197.438 292.95 176.512 298.013 171.113 298.35 162.337 293.288 156.262Z" transform="matrix(1.00309 0 0 1 177 169)"/><path d="M195.75 162C195.75 180.64 180.64 195.75 162 195.75 143.36 195.75 128.25 180.64 128.25 162 128.25 143.36 143.36 128.25 162 128.25 180.64 128.25 195.75 143.36 195.75 162Z" transform="matrix(1.00309 0 0 1 177 169)"/></g></svg>